<svg width="682" height="280" viewBox="0 0 682 280" fill="none" xmlns="http://www.w3.org/2000/svg">
<line x1="151.764" y1="38" x2="551.765" y2="38" stroke="#FF0000" stroke-width="30"/>
<line x1="151.764" y1="263" x2="551.765" y2="263" stroke="#FF0000" stroke-width="30"/>
<line x1="151.764" y1="147" x2="551.765" y2="147" stroke="#FF0000" stroke-width="30"/>
<path d="M172.887 39.7055L122.073 25.9437L79.7807 53.8396L48.3752 105.494L42.7815 177.776L119.277 188.555L171.582 145.117" stroke="#FF0000" stroke-width="30"/>
<path d="M538.709 146.398C708.31 119.579 710.888 294.213 536.825 260.373" stroke="#FF0000" stroke-width="30"/>
<path d="M238.264 28.5L464.264 266.5" stroke="#FF0000" stroke-width="30"/>
<circle cx="130.264" cy="28.5" r="7.5" fill="#1EDA4D"/>
<circle cx="45.2637" cy="173.5" r="7.5" fill="#1EDA4D"/>
<circle cx="130.264" cy="28.5" r="7.5" fill="#1EDA4D"/>
<circle cx="301.264" cy="259.5" r="7.5" fill="#1EDA4D"/>
<circle cx="175.264" cy="259.5" r="7.5" fill="#1EDA4D"/>
<circle cx="168.264" cy="150.5" r="7.5" fill="#1EDA4D"/>
<circle cx="450.264" cy="259.5" r="7.5" fill="#1EDA4D"/>
<circle cx="249.264" cy="36.5" r="7.5" fill="#1EDA4D"/>
<circle cx="411.264" cy="36.5" r="7.5" fill="#1EDA4D"/>
<circle cx="344.264" cy="143.5" r="7.5" fill="#1EDA4D"/>
<circle cx="544.264" cy="148.5" r="7.5" fill="#1EDA4D"/>
<circle cx="551.264" cy="259.5" r="7.5" fill="#1EDA4D"/>
<circle cx="667.264" cy="197.5" r="7.5" fill="#1EDA4D"/>
<circle cx="529.264" cy="35.5" r="7.5" fill="#1EDA4D"/>
</svg>
